<svg width="114" height="14" viewBox="0 0 114 14" fill="none" xmlns="http://www.w3.org/2000/svg">
<path d="M10.7754 2.33887H6.85547V13H4.21875V2.33887H0.351562V0.203125H10.7754V2.33887ZM18.457 10.3633H13.834L12.9551 13H10.1514L14.915 0.203125H17.3584L22.1484 13H19.3447L18.457 10.3633ZM14.5459 8.22754H17.7451L16.1367 3.4375L14.5459 8.22754ZM27.3516 7.86719L25.9805 9.34375V13H23.3438V0.203125H25.9805V6.00391L27.1406 4.41309L30.4014 0.203125H33.6445L29.1006 5.88965L33.7764 13H30.6387L27.3516 7.86719ZM42.4688 7.4541H37.4062V10.8818H43.3477V13H34.7695V0.203125H43.3301V2.33887H37.4062V5.38867H42.4688V7.4541ZM52.8223 0.203125L56.1094 9.48438L59.3789 0.203125H62.8418V13H60.1963V9.50195L60.46 3.46387L57.0059 13H55.1953L51.75 3.47266L52.0137 9.50195V13H49.377V0.203125H52.8223ZM69.3105 5.96875L71.9736 0.203125H74.8564L70.6553 8.35938V13H67.9746V8.35938L63.7734 0.203125H66.665L69.3105 5.96875ZM90.5537 8.7373C90.4541 10.1143 89.9443 11.1982 89.0244 11.9893C88.1104 12.7803 86.9033 13.1758 85.4033 13.1758C83.7627 13.1758 82.4707 12.625 81.5273 11.5234C80.5898 10.416 80.1211 8.89844 80.1211 6.9707V6.18848C80.1211 4.95801 80.3379 3.87402 80.7715 2.93652C81.2051 1.99902 81.8232 1.28125 82.626 0.783203C83.4346 0.279297 84.3721 0.0273438 85.4385 0.0273438C86.915 0.0273438 88.1045 0.422852 89.0068 1.21387C89.9092 2.00488 90.4307 3.11523 90.5713 4.54492H87.9346C87.8701 3.71875 87.6387 3.12109 87.2402 2.75195C86.8477 2.37695 86.2471 2.18945 85.4385 2.18945C84.5596 2.18945 83.9004 2.50586 83.4609 3.13867C83.0273 3.76562 82.8047 4.74121 82.793 6.06543V7.03223C82.793 8.41504 83.001 9.42578 83.417 10.0645C83.8389 10.7031 84.501 11.0225 85.4033 11.0225C86.2178 11.0225 86.8242 10.8379 87.2227 10.4688C87.627 10.0938 87.8584 9.5166 87.917 8.7373H90.5537ZM101.971 0.203125V8.63184C101.971 10.0322 101.531 11.1396 100.652 11.9541C99.7793 12.7686 98.584 13.1758 97.0664 13.1758C95.5723 13.1758 94.3857 12.7803 93.5068 11.9893C92.6279 11.1982 92.1797 10.1113 92.1621 8.72852V0.203125H94.7988V8.64941C94.7988 9.4873 94.998 10.0996 95.3965 10.4863C95.8008 10.8672 96.3574 11.0576 97.0664 11.0576C98.5488 11.0576 99.3018 10.2783 99.3252 8.71973V0.203125H101.971ZM106.77 8.49121V13H104.133V0.203125H109.125C110.086 0.203125 110.93 0.378906 111.656 0.730469C112.389 1.08203 112.951 1.58301 113.344 2.2334C113.736 2.87793 113.933 3.61328 113.933 4.43945C113.933 5.69336 113.502 6.68359 112.641 7.41016C111.785 8.13086 110.599 8.49121 109.081 8.49121H106.77ZM106.77 6.35547H109.125C109.822 6.35547 110.353 6.19141 110.716 5.86328C111.085 5.53516 111.27 5.06641 111.27 4.45703C111.27 3.83008 111.085 3.32324 110.716 2.93652C110.347 2.5498 109.837 2.35059 109.187 2.33887H106.77V6.35547Z" fill="#171818"/>
</svg>
